<?xml version="1.0" standalone="no"?>
<!DOCTYPE svg PUBLIC "-//W3C//DTD SVG 20010904//EN"
 "http://www.w3.org/TR/2001/REC-SVG-20010904/DTD/svg10.dtd">
<svg version="1.0" xmlns="http://www.w3.org/2000/svg"
 width="20.000000pt" height="20.000000pt" viewBox="0 0 20.000000 20.000000"
 preserveAspectRatio="xMidYMid meet">

<g transform="translate(0.000000,20.000000) scale(0.100000,-0.100000)"
fill="#000000" stroke="none">
<path d="M17 193 c-14 -13 -6 -40 18 -63 17 -16 23 -30 19 -43 -7 -22 15 -41
31 -27 8 6 21 -1 40 -20 32 -33 53 -38 62 -14 3 9 -6 27 -23 45 l-28 29 27 28
c52 54 25 93 -28 42 l-34 -33 -36 32 c-39 34 -39 34 -48 24z"/>
</g>
</svg>
