<?xml version="1.0" standalone="no"?>
<!DOCTYPE svg PUBLIC "-//W3C//DTD SVG 20010904//EN"
 "http://www.w3.org/TR/2001/REC-SVG-20010904/DTD/svg10.dtd">
<svg version="1.0" xmlns="http://www.w3.org/2000/svg"
 width="97.000000pt" height="34.000000pt" viewBox="0 0 97.000000 34.000000"
 preserveAspectRatio="xMidYMid meet">

<g transform="translate(0.000000,34.000000) scale(0.100000,-0.100000)"
fill="#DF4723" stroke="none">
<path d="M137 310 c-3 -12 -10 -19 -16 -16 -5 4 -13 -3 -16 -15 -9 -28 16 -53
44 -44 24 7 27 38 7 74 l-13 23 -6 -22z"/>
<path d="M533 292 c-20 -3 -23 -9 -23 -47 l0 -43 -40 5 c-50 7 -84 -14 -100
-62 -27 -81 39 -150 120 -126 30 9 42 20 58 54 12 23 21 34 22 24 1 -57 82
-102 135 -76 15 8 34 23 41 34 12 18 11 20 -15 20 -15 0 -35 -6 -44 -13 -18
-15 -60 -7 -55 10 2 5 31 21 63 35 33 14 61 26 63 28 1 1 -2 14 -9 28 -13 29
-47 47 -90 47 -34 0 -88 -46 -91 -77 -1 -10 -4 23 -7 72 -6 86 -7 90 -28 87z
m-41 -139 c42 -38 3 -117 -46 -91 -40 21 -48 58 -19 90 20 22 41 23 65 1z
m199 2 c1 -12 -69 -40 -78 -32 -3 4 2 16 12 27 19 21 65 24 66 5z"/>
<path d="M10 169 c0 -114 16 -148 68 -149 15 0 22 6 22 20 0 11 -6 20 -14 20
-18 0 -26 22 -26 71 0 28 4 39 15 39 8 0 15 9 15 20 0 11 -7 20 -15 20 -9 0
-15 9 -15 25 0 20 -5 25 -25 25 -25 0 -25 -1 -25 -91z"/>
<path d="M110 115 c0 -95 0 -95 25 -95 25 0 25 0 25 95 0 95 0 95 -25 95 -25
0 -25 0 -25 -95z"/>
<path d="M205 185 c-22 -21 -25 -33 -25 -95 0 -68 1 -70 25 -70 23 0 24 3 27
66 2 52 7 69 21 78 30 18 57 -24 57 -90 0 -47 2 -54 20 -54 18 0 20 7 20 70 0
62 -3 74 -25 95 -16 17 -35 25 -60 25 -25 0 -44 -8 -60 -25z"/>
<path d="M789 113 c35 -80 41 -88 68 -91 30 -3 31 -1 101 170 2 4 -10 8 -26 8
-23 0 -31 -5 -36 -23 -3 -13 -13 -41 -22 -63 l-17 -39 -22 60 c-20 54 -26 60
-53 63 l-31 3 38 -88z"/>
</g>
</svg>
